<svg width="200" height="59" viewBox="0 0 200 59"  xmlns="http://www.w3.org/2000/svg">
<path d="M174.648 17.668H162.7v-7.572h-3.325V28.5h3.325v-7.782h11.948V28.5h3.324V10.096h-3.324v7.572zM36.677 18.51H.105v18.51h36.572V18.51zM1.247 54.372c0-.42.52-.63 1.558-.63.727 0 1.559.21 2.286.525l.415-.946c-.83-.421-1.766-.632-2.805-.632C.935 52.69 0 53.426 0 54.372c0 2.42 4.78 1.367 4.78 2.735 0 .525-.624.841-1.767.841-.935 0-1.766-.21-2.701-.736L0 58.158c1.039.526 1.974.736 3.117.736 1.974 0 2.909-.84 2.909-1.893 0-2.418-4.78-1.472-4.78-2.629zM10.39 52.586c-1.87 0-3.43 1.262-3.43 3.155 0 1.893 1.56 3.155 3.43 3.155s3.428-1.262 3.428-3.155c0-1.788-1.558-3.155-3.428-3.155zm0 5.364c-1.455 0-2.286-.947-2.286-2.209 0-1.157.935-2.103 2.286-2.103 1.454 0 2.285.946 2.285 2.103 0 1.262-.935 2.209-2.285 2.209zM18.39 57.948c-1.455 0-2.39-.947-2.39-2.103 0-1.262.935-2.104 2.39-2.104.935 0 1.558.316 2.181.736l.624-.841c-.728-.526-1.559-.947-2.806-.947-1.974 0-3.428 1.263-3.428 3.156 0 1.893 1.454 3.155 3.428 3.155 1.143 0 2.078-.316 2.806-.842l-.624-.841c-.623.315-1.35.631-2.182.631zM23.479 52.795h-1.143v5.995h1.143v-5.995zM26.076 56.265h3.325v-1.051h-3.325V53.74h4.26v-.946h-5.402v5.995h5.61v-.947h-4.468v-1.578zM31.066 53.741h2.39v5.049h1.143V53.74h2.39v-.946h-5.923v.946zM38.963 56.265h3.325v-1.051h-3.325V53.74h4.26v-.946H37.82v5.995h5.61v-.947h-4.467v-1.578zM52.052 57.527c-.52.21-1.143.316-1.663.316-1.454 0-2.39-.842-2.39-2.104 0-1.156.936-2.103 2.39-2.103.936 0 1.559.316 2.182.736l.624-.841c-.728-.526-1.663-.842-2.806-.842-1.974 0-3.428 1.263-3.428 3.156 0 1.893 1.454 3.155 3.428 3.155 1.04 0 2.078-.316 2.806-.842v-2.313h-1.04v1.682M55.69 56.265h3.324v-1.051H55.69V53.74h4.26v-.946h-5.403v5.995h5.61v-.947H55.69v-1.578zM66.284 54.372c0 .842 0 1.788.104 2.945l-3.844-4.522h-1.247v5.995h1.039v-1.578-2.945l3.844 4.523h1.143v-5.995h-1.04v1.577zM70.026 56.265h3.324v-1.051h-3.324V53.74h4.26v-.946h-5.403v5.995h5.61v-.947h-4.467v-1.578zM81.559 54.688c0-1.157-.831-1.893-2.078-1.893h-3.844v5.995h1.143V56.58h1.766l1.662 2.209h1.35l-1.765-2.209c.935-.21 1.766-.841 1.766-1.893zm-4.78.946v-1.787h2.702c.623 0 .935.315.935.946 0 .526-.416.841-1.039.841H76.78zM84.882 52.795l-2.91 5.995h1.144l.727-1.473h3.22l.728 1.473h1.143l-2.91-5.995h-1.142zm-.624 3.576l1.143-2.42 1.143 2.42h-2.286zM90.807 52.795h-1.143v5.995h5.091v-.947h-3.948v-5.048zM96.729 56.265h3.324v-1.051H96.73V53.74h4.26v-.946h-5.403v5.995h5.61v-.947H96.73v-1.578zM109.923 57.527c-.416.21-1.04.316-1.662.316-1.455 0-2.286-.842-2.286-2.104 0-1.156.935-2.103 2.286-2.103.935 0 1.558.316 2.077.736l.624-.841c-.727-.526-1.559-.842-2.701-.842-1.974 0-3.429 1.263-3.429 3.156 0 1.893 1.455 3.155 3.429 3.155 1.039 0 2.077-.316 2.805-.842v-2.313h-1.04v1.682M118.232 54.793c0-1.156-.831-1.893-2.078-1.893h-3.74v5.89h1.039V56.58h1.766l1.663 2.209h1.35l-1.766-2.209c1.039-.105 1.766-.736 1.766-1.788zm-4.675.842v-1.788h2.701c.624 0 .935.315.935.946 0 .526-.415.842-1.039.842h-2.597zM122.597 52.69c-1.87 0-3.429 1.262-3.429 3.155 0 1.893 1.558 3.155 3.429 3.155 1.87 0 3.428-1.262 3.428-3.155 0-1.893-1.558-3.156-3.428-3.156zm0 5.258c-1.455 0-2.286-.947-2.286-2.103 0-1.157.935-2.104 2.286-2.104 1.35 0 2.285.947 2.285 2.104 0 1.156-.83 2.103-2.285 2.103zM132.051 56.266c0 .946-.623 1.683-1.87 1.683s-1.87-.737-1.87-1.683V52.9h-1.143v3.471c0 1.472 1.143 2.63 2.91 2.63 1.87 0 2.908-1.052 2.908-2.63v-3.47h-1.039v3.365M138.284 52.9h-3.636v5.89h1.039v-1.998h2.597c1.247 0 2.078-.737 2.078-1.893.104-1.157-.727-1.999-2.078-1.999zm.104 2.945h-2.597v-1.998h2.597c.624 0 .935.526.935 1.052a.937.937 0 0 1-.935.946zM48.727 10.095V28.5h3.324v-6.205h7.896c3.948 0 6.442-2.208 6.442-5.995 0-3.68-2.494-6.31-6.442-6.31h-11.22v.105zm14.337 6.31c0 1.683-1.143 2.84-2.805 2.84h-8.104v-6.1h7.896c1.87 0 3.013 1.473 3.013 3.26zM78.96 9.57c-5.817 0-10.597 3.997-10.597 9.781 0 5.784 4.78 9.78 10.598 9.78 5.818 0 10.597-3.89 10.597-9.78-.104-5.784-4.78-9.78-10.597-9.78zm0 16.407c-4.363 0-7.064-2.84-7.064-6.626 0-3.68 2.909-6.626 7.065-6.626 4.363 0 7.065 2.945 7.065 6.626 0 3.681-2.806 6.626-7.065 6.626zM103.583 25.872c-4.467 0-7.272-2.735-7.272-6.52 0-3.682 2.805-6.521 7.168-6.521 2.806 0 4.884.946 6.546 2.314l1.766-2.735c-2.286-1.683-4.883-2.734-8.52-2.734-6.025 0-10.7 3.996-10.7 9.78 0 5.89 4.57 9.781 10.7 9.781 3.637 0 6.338-.946 8.624-2.734l-1.766-2.735c-1.559 1.157-3.74 2.104-6.546 2.104zM144.311 10.096L135.48 28.5h3.636l2.078-4.417h9.87l2.078 4.417h3.637l-8.935-18.404h-3.533zm-1.662 10.937l3.532-7.467 3.429 7.467h-6.961zM199.688 10.096h-4.156l-9.142 8.624v-8.624h-3.429V28.5h3.429v-8.94l9.142 8.94H200l-9.766-9.465 9.454-8.94zM127.169 16.932h-7.896v-3.891h12.987V10.2h-16.416v18.405h11.325c3.948 0 6.753-2.209 6.753-5.784 0-3.787-2.805-5.89-6.753-5.89zm.208 8.624h-8.104v-5.574h8.104c2.077 0 3.324 1.157 3.324 2.734 0 1.893-.935 2.84-3.324 2.84z" fill="#282423"></path><path d="M36.677 18.93v-.42H.105V0h36.572v18.93z" fill="#DF0032"></path>
<path d="M36.677 18.51H.105v.42h36.572v-.42z" fill="#2B1917"></path>
<path d="M30.34 17.354H6.546v2.208h23.792v-2.209z" fill="#fff"></path>
</svg>